<?xml version="1.0" ?><svg id="图层_1" version="1.1" viewBox="0 0 4000 4000" xml:space="preserve" xmlns="http://www.w3.org/2000/svg" xmlns:xlink="http://www.w3.org/1999/xlink"><style>.st0,.st1,.st2,.st3{fill-rule:evenodd;clip-rule:evenodd;fill:#aec6f8}.st1,.st2,.st3{fill:#ffebe2}.st2,.st3{fill:#24245b}.st3{fill:#f99382}.st4{fill:none;stroke:#24245b;stroke-width:8.3333;stroke-linecap:round;stroke-linejoin:round;stroke-miterlimit:12.5}.st5{fill-rule:evenodd;clip-rule:evenodd;fill:#efc2e9}.st11{fill:none;stroke:#24245b;stroke-width:12.5;stroke-linecap:round;stroke-linejoin:round;stroke-miterlimit:12.5}</style><g id="图层2"><path class="st0" d="M3335 2194.4c-76-167.4-242.9-275-426.8-275h-892.1c-16 0-31 8.2-39.7 21.6-8.7 13.5-9.9 30.5-3.3 45.1 82.8 182.4 310.6 684.4 366.7 807.8 7.7 16.9 24.5 27.7 43 27.7h1153.1c18.4 0 35.5-9.3 45.4-24.8 9.9-15.4 11.4-34.9 3.8-51.6-54.7-120.4-163.7-360.5-250.1-550.8zM1586.1 1693.8c-7.6-16.9-24.5-27.7-43-27.7H679.8c-92.5 0-178.6 47-228.7 124.7-50.1 77.7-57.3 175.6-19 259.8 106.8 235.4 235.6 519.1 303.2 668.1 28.4 62.7 90.9 102.9 159.7 102.9h1129.7c16 0 31-8.2 39.7-21.6 8.7-13.5 9.9-30.4 3.3-45.1-99.6-219.5-414.7-913.7-481.6-1061.1z"/><path class="st1" d="M2054.6 1415s382.1 250.2 573.3 474.9c375.7 441.6 418.9 552.7 418.9 552.7 60 127.7-59.9 279.1-218.3 206.1l-244.2-112.3-1069.2 388.8s-281.9-77.3-440.2-240.5c0 0 130.4-417.9 419.3-776.3 179.7-222.9-251-816.4-133.7-869.5 47.3-21.3 694.1 376.1 694.1 376.1z"/><path class="st2" d="M1993.1 1894.6s59.2 96.2 217.6 104v-108.8l-217.6 4.8z"/><path class="st1" d="M1515.1 1947.8c-1-1.9-264.6-470.7-342.5-675.4-60.9-160 75.7-268.1 200.3-233.4 41.1 11.5 117.7 174.5 166.6 267.4 120.6 229.2 259.1 491.6 259.1 491.6 13.2 25.1-39.4 79-117.7 120.3-78.2 41.3-152.5 54.5-165.8 29.5z"/><path class="st3" d="M2132.4 1358.2s-305.2 390-120.2 556.5c150.1 135.1 450.5-207.9 491-300.2l-273.3-278.3-97.5 22z"/><path class="st3" d="M2099.1 1411.9c-.8 16.3-87.9 147.9-87.9 147.9-26.2-25.4-30.1-107.2 7.2-164.8 30.4-46.9 82.6-20.1 80.7 16.9z"/><path class="st4" d="M2038.7 1471.8c2.9-10.8-10.5-23.5-16.3-12.9"/><path class="st3" d="M2487.7 1610.9c24.3-7.7 81.5 39.7 0 103.7-58.4 45.8-94.5 48.6-106.8 37.8-12.4-10.9 106.8-141.5 106.8-141.5z"/><path class="st5" d="M2450.2 2219c0-22.1-17.9-40.1-40.1-40.1h-763.7c-22.1 0-40.1 17.9-40.1 40.1v748.6h843.9V2219z"/><path clip-rule="evenodd" d="M2579.7 2270.5c0-22.1-17.9-40.1-40.1-40.1h-986.4c-22.1 0-40.1 17.9-40.1 40.1v697h1066.6v-697z" fill="#006cff" fill-rule="evenodd"/><defs><path d="M2579.7 2270.5c0-22.1-17.9-40.1-40.1-40.1h-986.4c-22.1 0-40.1 17.9-40.1 40.1v697h1066.6v-697z" id="SVGID_1_"/></defs><clipPath id="SVGID_2_"><use overflow="visible" xlink:href="#SVGID_1_"/></clipPath><g clip-path="url(#SVGID_2_)"><path class="st2" d="M2240.1 2360.6s221.8 175.8 339.6 276.3v-158.3l-339.6-118z"/></g><path class="st2" d="M2230.3 1858.7h-77.6l183.5 389.4h77.6l-183.5-389.4z"/><path class="st3" d="M2584.4 2536.4L2242.9 2362s-78.9-35.1-32-102c-46.3-27.1-28.1-101.6 13.6-97.5-62.9-43-11.4-107.1 30.2-87.6l98.9 45.3-30.2-64.1s-6.5-30.3 30.2-40.2c33.6-9.1 40.6 102.6 152.4 160.2l388.8 186.6-310.4 173.7z"/><defs><path d="M2584.4 2536.4L2242.9 2362s-78.9-35.1-32-102c-46.3-27.1-28.1-101.6 13.6-97.5-62.9-43-11.4-107.1 30.2-87.6l98.9 45.3-30.2-64.1s-6.5-30.3 30.2-40.2c33.6-9.1 40.6 102.6 152.4 160.2l388.8 186.6-310.4 173.7z" id="SVGID_3_"/></defs><clipPath id="SVGID_4_"><use overflow="visible" xlink:href="#SVGID_3_"/></clipPath><g clip-path="url(#SVGID_4_)"><path class="st1" d="M2516 2181c-51.9 48-112.7 165.1-115.3 261.6l173.6 130 386.5-194.1-386.5-213.8-58.3 16.3z"/></g><path class="st2" d="M1633 1827.5c78.3-41.3 152.6-54.5 165.8-29.4 13.2 25.1-39.6 79-117.9 120.3-78.3 41.3-152.6 54.5-165.8 29.4-13.2-25.1 39.6-79 117.9-120.3z"/><path class="st4" d="M1519.8 1945.8l-81.4-147.7M1795.3 1802.8l-256.4-497.5"/><path class="st3" d="M1539.5 1894c21.3-21.9 54.2-45.8 93.5-66.6 47.2-24.9 92.9-39.6 124.6-41.7 0 0 9.7 26.8 28.7 52.6 22.9 31.6 70.1 74 125.2 81.1 60.4 7.7 36.2 90.3-61.7 58.3 0 0 8.3 19.4 19.4 50.3 18.6 51.9 58.3 176.1 0 183.3-20.8 2.5-35.8-11.5-44.5-54-11-53.6-23.3-71.2-23.3-71.2-6.8 33.5-17.6 67.5-28.1 92.9h-83l15.6-56s-27.9 25.2-70.3 0c-49.4-29.4-122.1-101.9-56.6-142.8l-40.1-85.5.1-.1.5-.6z"/><defs><path d="M1539.5 1894c21.3-21.9 54.2-45.8 93.5-66.6 47.2-24.9 92.9-39.6 124.6-41.7 0 0 9.7 26.8 28.7 52.6 22.9 31.6 70.1 74 125.2 81.1 60.4 7.7 36.2 90.3-61.7 58.3 0 0 8.3 19.4 19.4 50.3 18.6 51.9 58.3 176.1 0 183.3-20.8 2.5-35.8-11.5-44.5-54-11-53.6-23.3-71.2-23.3-71.2-6.8 33.5-17.6 67.5-28.1 92.9h-83l15.6-56s-27.9 25.2-70.3 0c-49.4-29.4-122.1-101.9-56.6-142.8l-40.1-85.5.1-.1.5-.6z" id="SVGID_5_"/></defs><clipPath id="SVGID_6_"><use overflow="visible" xlink:href="#SVGID_5_"/></clipPath><g clip-path="url(#SVGID_6_)"><path class="st2" d="M1762.9 1798.1c-31.5-11.3-188.2 75.8-204.5 138l-18.9-42 89.4-106 109-14.8 25 1.7v23.1z"/></g><path class="st2" d="M2162.1 1438.6c-37.7 113.8 98.9 270.8 205.8 164.6 56.8 247.8 252.9 151.1 229.5 3 120.3 64.9 181.5-161.1 7.7-252.9 100-49.6-29-222.5-201.6-129.2-133.6-190.8-345.4-73.9-278.8 30.1-166.5 10.4-219.6 224.1 37.4 184.4z"/><path class="st4" d="M2054.6 1420.9c.3 6.4-11.8 46.3-26.3 75.6M2323.4 1667.4s51.3-16.9 72.1 38.9M2101.5 1557.6s56.7-12.8 90 46.3"/><path class="st1" d="M2130.6 1580.2c120.3 0 245.2 97.6 278.9 217.9 33.7 120.3-36.7 217.9-156.9 217.9-120.3 0-245.2-97.6-278.9-217.9-33.7-120.3 36.6-217.9 156.9-217.9z"/><g><defs><path d="M2130.6 1580.2c120.3 0 245.2 97.6 278.9 217.9 33.7 120.3-36.7 217.9-156.9 217.9-120.3 0-245.2-97.6-278.9-217.9-33.7-120.3 36.6-217.9 156.9-217.9z" id="SVGID_7_"/></defs><clipPath id="SVGID_8_"><use overflow="visible" xlink:href="#SVGID_7_"/></clipPath><g clip-path="url(#SVGID_8_)"><path class="st2" d="M2337.7 1858.7c-.7 49.4-44.3 167.6-161.7 144.7l-74-27.3 235.7-117.4z"/><path class="st3" d="M2413.8 1761.1s-153.3 233.5-282.2 223.7h-54.8c-112-81.1-175.8-202.2-217.7-341.6l283-171.5c106.3 83.1 199.2 177.6 271.7 289.4z"/><g id="五官"><path class="st11" d="M2099.1 1889.8c-39.7-14.1-57-65.1-34.8-104.2"/><path class="st2" d="M2161.7 1620.8c10 7.1 9.4 25.1-1.3 40.2-10.7 15.1-27.6 21.6-37.6 14.5-10-7.1-9.4-25.1 1.3-40.2 10.7-15.1 27.6-21.6 37.6-14.5zM2334.8 1721.3c9.8 7.4 8.6 25.4-2.6 40.2-11.2 14.8-28.2 20.7-38 13.3-9.8-7.4-8.6-25.4 2.6-40.2 11.2-14.8 28.3-20.8 38-13.3z"/><path class="st11" d="M2240.1 1702.4s-52.8 97.5-73.7 136.3c-4.8 8.8-15.5 12.4-24.6 8.3-10.8-4.9-23.1-10.5-23.1-10.5"/></g><radialGradient cx="0" cy="4000" gradientTransform="scale(240.0893 -240.0893) rotate(-14.8 -15424.182 1961.048)" gradientUnits="userSpaceOnUse" id="SVGID_9_" r="1"><stop offset="0" stop-color="#fff" stop-opacity=".15"/><stop offset="1" stop-color="#fff" stop-opacity=".4"/></radialGradient><path clip-rule="evenodd" d="M2130.6 1580.2c120.3 0 245.2 97.6 278.9 217.9 33.7 120.3-36.7 217.9-156.9 217.9-120.3 0-245.2-97.6-278.9-217.9-33.7-120.3 36.6-217.9 156.9-217.9z" fill="url(#SVGID_9_)" fill-rule="evenodd"/></g></g><path class="st2" d="M2130.6 1580.2c120.3 0 245.2 97.6 278.9 217.9 33.7 120.3-36.7 217.9-156.9 217.9-120.3 0-245.2-97.6-278.9-217.9-33.7-120.3 36.6-217.9 156.9-217.9zm0 12.5c115.1 0 234.6 93.6 266.8 208.8 15.6 55.9 7.6 106.7-18.8 143.4-26.3 36.4-70.4 58.6-126 58.6-115.1 0-234.6-93.6-266.8-208.8-15.7-55.9-7.6-106.7 18.8-143.4 26.2-36.4 70.4-58.6 126-58.6z"/><g><path class="st4" d="M2224.4 2162.6l90.1 39.5M2353.6 2120.2l70.1 32.1M2210.8 2260l65.7 28.4M1697 2013.6s45 79.7 8.9 109.3M1579 1980.1l27.3 58M1766 1970.4c27.2 55 41.4 89.5 35.4 115.6M1849.8 1977.7s-17.2-35.4-36.4-58.3"/></g><path class="st4" d="M2560 2204.3l334.8 157.7"/><path class="st5" d="M2287.6 2421.9c0-3.9-1.6-7.7-4.4-10.5-2.8-2.8-6.6-4.4-10.5-4.4h-452.6c-4 0-7.7 1.6-10.5 4.4-2.8 2.8-4.4 6.6-4.4 10.5v109.9c0 4 1.6 7.7 4.4 10.5 2.8 2.8 6.6 4.4 10.5 4.4h452.6c3.9 0 7.7-1.6 10.5-4.4 2.8-2.8 4.4-6.6 4.4-10.5v-109.9z"/><g><defs><path d="M2287.6 2421.9c0-3.9-1.6-7.7-4.4-10.5-2.8-2.8-6.6-4.4-10.5-4.4h-452.6c-4 0-7.7 1.6-10.5 4.4-2.8 2.8-4.4 6.6-4.4 10.5v109.9c0 4 1.6 7.7 4.4 10.5 2.8 2.8 6.6 4.4 10.5 4.4h452.6c3.9 0 7.7-1.6 10.5-4.4 2.8-2.8 4.4-6.6 4.4-10.5v-109.9z" id="SVGID_10_"/></defs><clipPath id="SVGID_11_"><use overflow="visible" xlink:href="#SVGID_10_"/></clipPath><g clip-path="url(#SVGID_11_)"><path clip-rule="evenodd" d="M2287.6 2424.8s-193.9 9.9-467 129.1l-15.4 105.7 518.1-60.7-35.7-174.1z" fill="#c47cb9" fill-rule="evenodd"/></g></g></g></svg>